# xmcd
#
# Track frame offsets:
#	150
#	11407
#	25250
#	38887
#	55230
#	70855
#	84030
#	96282
#	109130
#	122890
#
# Disc length: 1888 seconds
#
# Revision: 1
# Processed by: cddbd v1.5.2PL0 Copyright (c) Steve Scherf et al.
# Submitted via: EasyCDDAExtractor 15.2.5.1
#
DISCID=78075e0a
DTITLE=Ricky Van Shelton - RVS III
DYEAR=1990
DGENRE=Country
TTITLE0=I've Cried My Last Tear For You
TTITLE1=Statue Of A Fool
TTITLE2=Would You Do The Same For Me
TTITLE3=Life's Little Ups And Downs
TTITLE4=I'm Starting Over
TTITLE5=Love Is Burnin'
TTITLE6=Not That I Care
TTITLE7=Oh Pretty Woman
TTITLE8=I Meant Every Word That He Said
TTITLE9=I Still Love You
EXTD=
EXTT0=
EXTT1=
EXTT2=
EXTT3=
EXTT4=
EXTT5=
EXTT6=
EXTT7=
EXTT8=
EXTT9=
PLAYORDER=
